<svg width="216" height="140" viewBox="0 0 216 140" fill="none" xmlns="http://www.w3.org/2000/svg">
<path d="M26.7352 7.50067e-05L216 7.62939e-05L216 140L26.7351 140C9.51825 120.748 8.01557e-05 95.8272 8.24135e-05 70C8.46714e-05 44.1729 9.51826 19.2516 26.7352 7.50067e-05Z" fill="white"/>
<path d="M92.4182 88.8954V77.2764L87.4569 88.8954H84.8083L79.8875 77.3835V88.8954H76V70.0254H80.2869L86.1369 83.6301L91.9869 70.0254H96.2999L96.2738 88.8954H92.4182Z" fill="#003C69"/>
<path d="M99.5361 71.5334C99.5398 70.9816 99.7588 70.4532 100.147 70.0606C100.534 69.668 101.06 69.4424 101.612 69.4319C101.894 69.4214 102.176 69.468 102.441 69.569C102.705 69.6699 102.946 69.8231 103.15 70.0194C103.354 70.2158 103.516 70.4511 103.626 70.7115C103.737 70.9719 103.794 71.2519 103.794 71.5348C103.794 71.8177 103.737 72.0977 103.626 72.3581C103.516 72.6185 103.354 72.8538 103.15 73.0502C102.946 73.2465 102.705 73.3997 102.441 73.5006C102.176 73.6016 101.894 73.6482 101.612 73.6377C101.058 73.6309 100.53 73.4061 100.141 73.0121C99.7528 72.6181 99.5353 72.0867 99.5361 71.5334ZM103.554 75.2963V88.8836H99.7243V75.3079L103.554 75.2963Z" fill="#003C69"/>
<path d="M117.112 78.6629H111.748V84.4318C111.748 85.3002 112.154 85.7257 112.88 85.7257C113.094 85.7339 113.308 85.6975 113.507 85.6188C113.706 85.54 113.887 85.4207 114.038 85.2684L115.546 88.0183C115.115 88.5046 114.009 89.2861 111.989 89.2861C109.832 89.2861 107.916 87.8851 107.916 85.0252V78.6629H105.649V75.308H107.913V71.7766H111.743V75.308H117.112V71.7766H120.942V75.308H124.175V78.6629H120.942V84.4318C120.942 85.3002 121.347 85.7257 122.073 85.7257C122.288 85.7339 122.501 85.6975 122.7 85.6188C122.9 85.54 123.081 85.4207 123.231 85.2684L124.739 88.0183C124.308 88.5046 123.202 89.2861 121.182 89.2861C119.025 89.2861 117.109 87.8851 117.109 85.0252L117.112 78.6629Z" fill="#003C69"/>
<path d="M132.911 86.1454C134.691 86.1454 135.58 85.0686 135.849 84.3681L139.033 85.3117C138.199 87.5753 136.257 89.2744 132.914 89.2744C129.151 89.2744 125.967 86.4175 125.967 82.1016C125.967 77.8957 129.041 74.9316 132.896 74.9316C136.914 74.9316 139.34 77.8697 139.34 81.9945V83.2942H129.568C129.683 84.0947 130.086 84.8257 130.701 85.3505C131.317 85.8753 132.102 86.1579 132.911 86.1454ZM132.911 77.9768C132.122 77.9429 131.347 78.2006 130.735 78.7007C130.124 79.2009 129.717 79.9086 129.594 80.689H136.011C135.942 79.9252 135.581 79.2173 135.004 78.7123C134.427 78.2073 133.677 77.9439 132.911 77.9768Z" fill="#003C69"/>
<path d="M107.948 46.2432C113.529 46.2432 116.898 50.0698 116.898 55.6767C116.898 61.6078 112.799 65.1131 107.925 65.1131H101.047V46.2432H107.948ZM113.017 55.6506C113.017 52.4955 111.859 49.7456 107.598 49.7456H104.929V61.6135H107.841C111.728 61.5846 113.017 58.551 113.017 55.6391V55.6506Z" fill="#003C69"/>
<path d="M119.459 47.7397C119.463 47.1879 119.682 46.6595 120.07 46.2669C120.458 45.8743 120.983 45.6487 121.535 45.6382C121.818 45.6277 122.1 45.6743 122.364 45.7753C122.628 45.8762 122.869 46.0294 123.073 46.2257C123.277 46.4221 123.439 46.6574 123.55 46.9178C123.66 47.1782 123.717 47.4582 123.717 47.7411C123.717 48.024 123.66 48.304 123.55 48.5644C123.439 48.8248 123.277 49.0601 123.073 49.2565C122.869 49.4528 122.628 49.606 122.364 49.7069C122.1 49.8079 121.818 49.8545 121.535 49.844C120.982 49.8372 120.453 49.6123 120.065 49.2184C119.676 48.8244 119.459 48.293 119.459 47.7397ZM123.477 51.5026V65.0899H119.648V51.5142L123.477 51.5026Z" fill="#003C69"/>
<path d="M132.911 62.3517C134.691 62.3517 135.58 61.2749 135.849 60.5715L139.033 61.5151C138.196 63.7816 136.254 65.4807 132.911 65.4807C129.148 65.4807 125.964 62.6209 125.964 58.3079C125.964 54.102 129.038 51.1379 132.894 51.1379C136.911 51.1379 139.337 54.076 139.337 58.2008V59.4947H129.568C129.682 60.2962 130.084 61.0286 130.7 61.5546C131.315 62.0806 132.101 62.364 132.911 62.3517ZM132.911 54.1831C132.124 54.1482 131.351 54.4037 130.74 54.9011C130.129 55.3984 129.722 56.103 129.597 56.8808H136.011C135.938 56.1196 135.576 55.4153 134.999 54.9133C134.422 54.4113 133.675 54.1499 132.911 54.1831Z" fill="#003C69"/>
<path d="M147.532 103.183L156.331 111.051C166.422 99.7678 172 85.162 172 70.0253C172 54.8886 166.422 40.2829 156.331 29L147.532 36.8675C155.383 46.1319 159.692 57.8816 159.692 70.0253C159.692 82.169 155.383 93.9187 147.532 103.183Z" fill="#FF9B00"/>
</svg>
