<svg width="23" height="23" viewBox="0 0 23 23" fill="none" xmlns="http://www.w3.org/2000/svg">
<path fill-rule="evenodd" clip-rule="evenodd" d="M15.3438 8.9219C15.3438 12.4686 12.4686 15.3438 8.9219 15.3438C5.37518 15.3438 2.5 12.4686 2.5 8.9219C2.5 5.37518 5.37518 2.5 8.9219 2.5C12.4686 2.5 15.3438 5.37518 15.3438 8.9219ZM14.285 16.0526C12.7922 17.1771 10.9349 17.8438 8.9219 17.8438C3.99447 17.8438 0 13.8493 0 8.9219C0 3.99447 3.99447 0 8.9219 0C13.8493 0 17.8438 3.99447 17.8438 8.9219C17.8438 10.9348 17.1772 12.792 16.0528 14.2848L22.2081 20.4401L20.4403 22.2078L14.285 16.0526Z" fill="white"/>
</svg>
