<svg width="24" height="20" viewBox="0 0 24 20" fill="none" xmlns="http://www.w3.org/2000/svg">
<path opacity="0.3" fill-rule="evenodd" clip-rule="evenodd" d="M24 2.49581C23.1296 2.88398 22.396 2.89681 21.6175 2.51292C22.6216 1.91196 22.6676 1.49064 23.0301 0.355017C22.0912 0.912137 21.0508 1.31634 19.944 1.53556C19.0586 0.591338 17.7947 0 16.3981 0C13.7141 0 11.5391 2.17715 11.5391 4.85903C11.5391 5.24078 11.5819 5.61183 11.6642 5.96685C7.62538 5.76475 4.04527 3.83033 1.6489 0.889681C1.2308 1.6072 0.990198 2.44235 0.990198 3.3331C0.990198 5.01943 1.84887 6.50579 3.15238 7.37729C2.35573 7.35163 1.6072 7.13349 0.951702 6.76992C0.950633 6.79023 0.950633 6.80948 0.950633 6.83087C0.950633 9.18553 2.62627 11.1488 4.8494 11.5958C4.13723 11.7893 3.38656 11.8193 2.65407 11.6792C3.27321 13.6093 5.06755 15.0144 7.19337 15.054C5.1146 16.6837 2.53645 17.3627 0 17.0654C2.15042 18.4438 4.70397 19.2479 7.44787 19.2479C16.3864 19.2479 21.2721 11.8439 21.2721 5.42256C21.2721 5.2119 21.2689 5.00339 21.2593 4.7938C22.2078 4.10943 23.3488 3.47104 24 2.49581Z" fill="#003C69"/>
</svg>
