<svg width="50" height="50" viewBox="0 0 50 50" fill="none" xmlns="http://www.w3.org/2000/svg">
<path fill-rule="evenodd" clip-rule="evenodd" d="M25.5 12C21.8336 12 21.3738 12.0155 19.934 12.0812C18.497 12.1468 17.5157 12.375 16.6569 12.7088C15.7692 13.0537 15.0163 13.5153 14.2658 14.2658C13.5153 15.0164 13.0537 15.7692 12.7087 16.6569C12.375 17.5157 12.1468 18.497 12.0812 19.934C12.0155 21.3739 12 21.8336 12 25.5C12 29.1664 12.0155 29.6261 12.0812 31.066C12.1468 32.503 12.375 33.4843 12.7087 34.343C13.0537 35.2307 13.5153 35.9836 14.2658 36.7341C15.0163 37.4847 15.7692 37.9462 16.6569 38.2913C17.5157 38.625 18.497 38.8532 19.934 38.9188C21.3738 38.9845 21.8336 39 25.5 39C29.1664 39 29.6261 38.9845 31.066 38.9188C32.503 38.8532 33.4843 38.625 34.343 38.2913C35.2308 37.9462 35.9836 37.4847 36.7341 36.7341C37.4847 35.9836 37.9462 35.2308 38.2912 34.343C38.625 33.4843 38.8532 32.503 38.9188 31.066C38.9845 29.6261 39 29.1664 39 25.5C39 21.8336 38.9845 21.3739 38.9188 19.934C38.8532 18.497 38.625 17.5157 38.2912 16.6569C37.9462 15.7692 37.4847 15.0164 36.7341 14.2658C35.9836 13.5153 35.2308 13.0537 34.343 12.7088C33.4843 12.375 32.503 12.1468 31.066 12.0812C29.6261 12.0155 29.1664 12 25.5 12ZM25.5011 14.4326C29.1058 14.4326 29.5328 14.4463 30.9563 14.5113C32.2725 14.5714 32.9873 14.7913 33.463 14.9762C34.0932 15.2211 34.5429 15.5136 35.0153 15.986C35.4877 16.4584 35.7802 16.9081 36.0252 17.5383C36.21 18.014 36.4299 18.7288 36.49 20.045C36.5549 21.4686 36.5687 21.8955 36.5687 25.5002C36.5687 29.1048 36.5549 29.5318 36.49 30.9553C36.4299 32.2716 36.21 32.9864 36.0252 33.4621C35.7802 34.0922 35.4877 34.542 35.0153 35.0143C34.5429 35.4868 34.0932 35.7793 33.463 36.0242C32.9873 36.209 32.2725 36.429 30.9563 36.489C29.533 36.554 29.1061 36.5678 25.5011 36.5678C21.8962 36.5678 21.4693 36.554 20.046 36.489C18.7298 36.429 18.0149 36.209 17.5392 36.0242C16.9091 35.7793 16.4593 35.4868 15.987 35.0143C15.5146 34.542 15.222 34.0922 14.9771 33.4621C14.7923 32.9864 14.5723 32.2716 14.5123 30.9553C14.4473 29.5318 14.4336 29.1048 14.4336 25.5002C14.4336 21.8955 14.4473 21.4686 14.5123 20.045C14.5723 18.7288 14.7923 18.014 14.9771 17.5383C15.222 16.9081 15.5146 16.4584 15.987 15.986C16.4593 15.5136 16.9091 15.2211 17.5392 14.9762C18.0149 14.7913 18.7298 14.5714 20.046 14.5113C21.4695 14.4463 21.8965 14.4326 25.5011 14.4326Z" fill="#003C69"/>
<path fill-rule="evenodd" clip-rule="evenodd" d="M25.4994 30.0024C23.0142 30.0024 20.9994 27.9876 20.9994 25.5023C20.9994 23.0171 23.0142 21.0024 25.4994 21.0024C27.9847 21.0024 29.9995 23.0171 29.9995 25.5023C29.9995 27.9876 27.9847 30.0024 25.4994 30.0024ZM25.4989 18.5698C21.6702 18.5698 18.5664 21.6736 18.5664 25.5022C18.5664 29.331 21.6702 32.4347 25.4989 32.4347C29.3275 32.4347 32.4313 29.331 32.4313 25.5022C32.4313 21.6736 29.3275 18.5698 25.4989 18.5698Z" fill="#003C69"/>
<path fill-rule="evenodd" clip-rule="evenodd" d="M34.3257 18.2953C34.3257 19.19 33.6004 19.9152 32.7057 19.9152C31.811 19.9152 31.0857 19.19 31.0857 18.2953C31.0857 17.4006 31.811 16.6753 32.7057 16.6753C33.6004 16.6753 34.3257 17.4006 34.3257 18.2953Z" fill="#003C69"/>
</svg>
