<svg width="50" height="50" viewBox="0 0 50 50" fill="none" xmlns="http://www.w3.org/2000/svg">
<path fill-rule="evenodd" clip-rule="evenodd" d="M35.976 18.0563C35.1427 18.4279 34.4404 18.4402 33.6952 18.0727C34.6564 17.4974 34.7005 17.094 35.0475 16.0069C34.1487 16.5402 33.1526 16.9272 32.0931 17.137C31.2455 16.2331 30.0354 15.667 28.6985 15.667C26.129 15.667 24.0468 17.7513 24.0468 20.3187C24.0468 20.6842 24.0877 21.0394 24.1666 21.3793C20.3 21.1858 16.8727 19.3339 14.5786 16.5187C14.1783 17.2056 13.9479 18.0051 13.9479 18.8579C13.9479 20.4723 14.77 21.8952 16.0179 22.7295C15.2552 22.7049 14.5386 22.4961 13.9111 22.1481C13.9101 22.1675 13.9101 22.1859 13.9101 22.2064C13.9101 24.4606 15.5142 26.3401 17.6425 26.768C16.9607 26.9533 16.2421 26.982 15.5408 26.8479C16.1336 28.6957 17.8513 30.0408 19.8864 30.0787C17.8964 31.6388 15.4282 32.2889 13 32.0043C15.0587 33.3238 17.5033 34.0936 20.1301 34.0936C28.6872 34.0936 33.3645 27.0055 33.3645 20.8582C33.3645 20.6565 33.3615 20.4569 33.3522 20.2563C34.2603 19.6011 35.3526 18.9899 35.976 18.0563Z" fill="#003C69"/>
</svg>
