<svg width="50" height="50" viewBox="0 0 50 50" fill="none" xmlns="http://www.w3.org/2000/svg">
<path fill-rule="evenodd" clip-rule="evenodd" d="M34.3303 34.3332H29.9094V27.7707C29.9094 26.0532 29.2192 24.8813 27.698 24.8813C26.5351 24.8813 25.8885 25.6722 25.587 26.4349C25.4747 26.7077 25.4918 27.0894 25.4918 27.4717V34.3332H21.1126C21.1126 34.3332 21.1695 22.7088 21.1126 21.6525H25.4918V23.6422C25.7503 22.772 27.1499 21.5302 29.3845 21.5302C32.1539 21.5302 34.3303 23.3546 34.3303 27.2815V34.3332ZM16.6578 20.0659C15.247 20.0659 14.332 19.0962 14.332 17.8686C14.332 16.616 15.2741 15.6665 16.7134 15.6665C18.1506 15.6665 19.0359 16.6133 19.0636 17.8652C19.0636 19.0936 18.1506 20.0659 16.6856 20.0659H16.6578ZM14.8366 34.3331H18.7352V21.6524H14.8366V34.3331Z" fill="#003C69"/>
</svg>
