<svg width="40" height="40" viewBox="0 0 40 40" fill="none" xmlns="http://www.w3.org/2000/svg">
<path fill-rule="evenodd" clip-rule="evenodd" d="M30.976 13.0563C30.1427 13.4279 29.4404 13.4402 28.6952 13.0727C29.6564 12.4974 29.7005 12.094 30.0475 11.0069C29.1487 11.5402 28.1526 11.9272 27.0931 12.137C26.2455 11.2331 25.0354 10.667 23.6985 10.667C21.129 10.667 19.0468 12.7513 19.0468 15.3187C19.0468 15.6842 19.0877 16.0394 19.1666 16.3793C15.3 16.1858 11.8727 14.3339 9.57855 11.5187C9.17828 12.2056 8.94795 13.0051 8.94795 13.8579C8.94795 15.4723 9.76998 16.8952 11.0179 17.7295C10.2552 17.7049 9.53863 17.4961 8.9111 17.1481C8.91007 17.1675 8.91007 17.1859 8.91007 17.2064C8.91007 19.4606 10.5142 21.3401 12.6425 21.768C11.9607 21.9533 11.2421 21.982 10.5408 21.8479C11.1336 23.6957 12.8513 25.0408 14.8864 25.0787C12.8964 26.6388 10.4282 27.2889 8 27.0043C10.0587 28.3238 12.5033 29.0936 15.1301 29.0936C23.6872 29.0936 28.3645 22.0055 28.3645 15.8582C28.3645 15.6565 28.3615 15.4569 28.3522 15.2563C29.2603 14.6011 30.3526 13.9899 30.976 13.0563Z" fill="#003C69"/>
</svg>
